{"title":"127 Hours 2010 DvDScr.H264.Feel-Free","uid":6085489,"size":1181318250,"categoryP":"video","categoryS":"movies","magnet":"?xt=urn:btih:56a9756a90988a8f14af67c0c7840cabca5ae1dc&amp;dn=127+Hours+2010+DvDScr.H264.Feel-Free&amp;tr=udp%3A%2F%2Ftracker.openbittorrent.com%3A80&amp;tr=udp%3A%2F%2Fopen.demonii.com%3A1337&amp;tr=udp%3A%2F%2Ftracker.coppersurfer.tk%3A6969&amp;tr=udp%3A%2F%2Fexodus.desync.com%3A6969","seeders":0,"leechers":0,"uploader":"neon","files":-1,"time":1294308897,"description":"Genre:Adventure | Biography | Drama\nLanguage:English\n &lt;a href=&quot; http://www.imdb.com/title/tt1542344/&quot; rel=&quot;nofollow&quot; target=&quot;_NEW&quot;&gt; http://www.imdb.com/title/tt1542344/&lt;/a&gt;\nSource:DVDSCR.T0XiC-iNK Thx.\n\n\nFormat : MPEG-4\nFormat profile : Base Media\nCodec ID : isom\nFile size : 1.10 GiB\nDuration : 1h 32mn\nOverall bit rate : 1 694 Kbps\nMovie name : 127.Hours.2010.DvDScr.H264.Feel-Free\n\n\nVideo\nFormat settings, CABAC : Yes\nFormat settings, ReFrames : 4 frames\nFormat settings, GOP : M=4, N=32\nCodec ID : avc1\nCodec ID/Info : Advanced Video Coding\nDuration : 1h 32mn\nBit rate mode : Variable\nBit rate : 1 500 Kbps\nWidth : 720 pixels\nHeight : 384 pixels\nDisplay aspect ratio : 1.875\nFrame rate mode : Constant\nFrame rate : 29.970 fps\nColor space : YUV\nChroma subsampling : 4:2:0\nBit depth : 8 bits\nScan type : Progressive\nBits/(Pixel*Frame) : 0.181\nStream size : 1 010 MiB (90%)\n\nAudio\nID : 2\nFormat : AAC\nFormat/Info : Advanced Audio Codec\nFormat version : Version 4\nFormat profile : LC\nCodec ID : 40\nDuration : 1h 32mn\nBit rate mode : Variable\nBit rate : 165 Kbps\nChannel(s) : 2 channels\nChannel positions : Front: L R\nSampling rate : 48.0 KHz\nStream size : 110 MiB (10%)\n\n\nPlot:\nA mountain climber becomes trapped under a boulder while canyoneering alone near Moab, Utah and resorts to desperate measures in order to survive\n &lt;a href=&quot;\nhttp://shareimage.org/images/6ryajl35ql3zoe5lvpw.png&quot; rel=&quot;nofollow&quot; target=&quot;_NEW&quot;&gt;\nhttp://shareimage.org/images/6ryajl35ql3zoe5lvpw.png&lt;/a&gt; &lt;a href=&quot;\nhttp://shareimage.org/images/z153k4p4szdmhvogsu7a.png&quot; rel=&quot;nofollow&quot; target=&quot;_NEW&quot;&gt;\nhttp://shareimage.org/images/z153k4p4szdmhvogsu7a.png&lt;/a&gt; &lt;a href=&quot;\nhttp://shareimage.org/images/8rr9gl5eo5e2lz4v2bzp.png&quot; rel=&quot;nofollow&quot; target=&quot;_NEW&quot;&gt;\nhttp://shareimage.org/images/8rr9gl5eo5e2lz4v2bzp.png&lt;/a&gt; &lt;a href=&quot;\nhttp://shareimage.org/images/lffcnwi8yiinag473r73.png&quot; rel=&quot;nofollow&quot; target=&quot;_NEW&quot;&gt;\nhttp://shareimage.org/images/lffcnwi8yiinag473r73.png&lt;/a&gt; &lt;a href=&quot;\nhttp://shareimage.org/images/3g3oxt7srn3uasedcn1f.png&quot; rel=&quot;nofollow&quot; target=&quot;_NEW&quot;&gt;\nhttp://shareimage.org/images/3g3oxt7srn3uasedcn1f.png&lt;/a&gt;","torrent":{"xt":"urn:btih:56a9756a90988a8f14af67c0c7840cabca5ae1dc","amp;dn":"127+Hours+2010+DvDScr.H264.Feel-Free","amp;tr":["udp%3A%2F%2Ftracker.openbittorrent.com%3A80","udp%3A%2F%2Fopen.demonii.com%3A1337","udp%3A%2F%2Ftracker.coppersurfer.tk%3A6969","udp%3A%2F%2Fexodus.desync.com%3A6969"],"infoHash":"56a9756a90988a8f14af67c0c7840cabca5ae1dc","infoHashBuffer":{"type":"Buffer","data":[86,169,117,106,144,152,138,143,20,175,103,192,199,132,12,171,202,90,225,220]},"announce":[],"urlList":[]}}